<?xml version="1.0" encoding="UTF-8"?>
<svg id="Capa_1" data-name="Capa 1" xmlns="http://www.w3.org/2000/svg" viewBox="0 0 685.4765 136.0089">
  <defs>
    <style>
      .cls-1 {
        fill: #851b15;
        stroke: #be1823;
        stroke-miterlimit: 10;
      }

      .cls-2 {
        opacity: .77;
      }

      .cls-3 {
        fill: #2a2a2a;
      }
    </style>
  </defs>
  <g>
    <path class="cls-3" d="M18.4727,136.0089c-3.4217,0-6.5224-.8216-9.3003-2.4655-2.7805-1.644-5.0034-3.835-6.6711-6.5758-1.6678-2.7382-2.5012-5.7954-2.5012-9.1683v-54.628c0-3.3702.8335-6.4275,2.5012-9.1674,1.6678-2.7391,3.8906-4.9319,6.6711-6.5758,2.7779-1.644,5.8786-2.4655,9.3003-2.4655h55.4197c3.3356,0,6.3927.8216,9.1724,2.4655,2.7788,1.644,5.0234,3.8368,6.7355,6.5758,1.7095,2.7399,2.5656,5.7972,2.5656,9.1674v54.628c0,3.3728-.8561,6.4301-2.5656,9.1683-1.7122,2.7408-3.9567,4.9319-6.7355,6.5758-2.7796,1.644-5.8368,2.4655-9.1724,2.4655H18.4727ZM19.2426,117.6732h53.624c.2566,0,.4489-.0635.5768-.1895.1288-.1269.1923-.3164.1923-.5694v-52.8571c0-.253-.0635-.4434-.1923-.5694-.1279-.1261-.3202-.1895-.5768-.1895H19.2426c-.2566,0-.4489.0635-.5777.1895-.1279.1261-.1923.3164-.1923.5694v52.8571c0,.253.0644.4425.1923.5694.1288.1261.321.1895.5777.1895ZM73.1233,136.0089v-16.1858l19.2426-2.9089v.7589h10.7758v18.3357h-30.0184Z"/>
    <path class="cls-3" d="M130.5927,136.0089c-3.4217,0-6.5224-.8216-9.3003-2.4655-2.7805-1.644-5.0034-3.835-6.6711-6.5758-1.6678-2.7382-2.5012-5.7954-2.5012-9.1683v-54.628c0-3.3702.8335-6.4275,2.5012-9.1674,1.6678-2.7391,3.8906-4.9319,6.6711-6.5758,2.7779-1.644,5.8786-2.4655,9.3003-2.4655h55.4197c3.3356,0,6.3927.8216,9.1724,2.4655,2.7788,1.644,5.0234,3.8368,6.7355,6.5758,1.7095,2.7399,2.5656,5.7972,2.5656,9.1674v54.628c0,3.3728-.8561,6.4301-2.5656,9.1683-1.7122,2.7408-3.9567,4.9319-6.7355,6.5758-2.7796,1.644-5.8368,2.4655-9.1724,2.4655h-55.4197ZM131.3627,117.6732h53.624c.2566,0,.4489-.0635.5768-.1895.1288-.1269.1923-.3164.1923-.5694v-52.8571c0-.253-.0635-.4434-.1923-.5694-.1279-.1261-.3202-.1895-.5768-.1895h-53.624c-.2566,0-.4489.0635-.5777.1895-.1279.1261-.1923.3164-.1923.5694v52.8571c0,.253.0644.4425.1923.5694.1288.1261.321.1895.5777.1895Z"/>
    <path class="cls-3" d="M235.4022,136.0089c-3.3356,0-6.4145-.8216-9.2368-2.4655s-5.0469-3.835-6.6711-6.5758c-1.6252-2.7382-2.4369-5.7954-2.4369-9.1683v-7.713h18.4727v6.828c0,.253.0644.4425.1923.5694.1288.1261.2767.1895.4498.1895h53.7519c.1696,0,.3402-.0635.5124-.1895.1705-.1269.2566-.3164.2566-.5694v-16.5657c0-.1672-.0861-.3156-.2566-.4425-.1723-.1261-.3428-.1895-.5124-.1895h-54.5219c-3.3356,0-6.4145-.8216-9.2368-2.4655-2.8223-1.644-5.0469-3.8573-6.6711-6.6393-1.6252-2.782-2.4369-5.8169-2.4369-9.1048v-18.3357c0-3.3702.8117-6.4275,2.4369-9.1674,1.6243-2.7391,3.8489-4.9319,6.6711-6.5758s5.9012-2.4655,9.2368-2.4655h55.5476c3.3356,0,6.3927.8216,9.1724,2.4655,2.7788,1.644,5.0234,3.8368,6.7355,6.5758,1.7095,2.7399,2.5656,5.7972,2.5656,9.1674v7.7138h-18.7302v-6.828c0-.253-.0861-.4434-.2566-.5694-.1723-.1261-.3428-.1895-.5124-.1895h-53.7519c-.1731,0-.321.0635-.4498.1895-.1279.1261-.1923.3164-.1923.5694v16.5648c0,.1698.0644.3164.1923.4425.1288.1269.2767.1904.4498.1904h54.7777c3.3356,0,6.3927.8216,9.1724,2.4655,2.7788,1.644,5.0234,3.8565,6.7355,6.6384,1.7095,2.782,2.5656,5.8169,2.5656,9.1048v18.3357c0,3.3728-.8561,6.4301-2.5656,9.1683-1.7122,2.7408-3.9567,4.9319-6.7355,6.5758-2.7796,1.644-5.8368,2.4655-9.1724,2.4655h-55.5476Z"/>
    <path class="cls-3" d="M340.3395,136.0089c-3.4217,0-6.5224-.8216-9.3003-2.4655-2.7805-1.644-5.0034-3.835-6.6711-6.5758-1.6678-2.7382-2.5012-5.7954-2.5012-9.1683v-54.628c0-3.3702.8335-6.4275,2.5012-9.1674,1.6678-2.7391,3.8906-4.9319,6.6711-6.5758,2.7779-1.644,5.8786-2.4655,9.3003-2.4655h55.4197c3.3356,0,6.3927.8216,9.1724,2.4655,2.7788,1.644,5.0234,3.8368,6.7355,6.5758,1.7095,2.7399,2.5656,5.7972,2.5656,9.1674v54.628c0,3.3728-.8561,6.4301-2.5656,9.1683-1.7122,2.7408-3.9567,4.9319-6.7355,6.5758-2.7796,1.644-5.8368,2.4655-9.1724,2.4655h-55.4197ZM341.1095,117.6732h53.624c.2566,0,.4489-.0635.5768-.1895.1288-.1269.1923-.3164.1923-.5694v-52.8571c0-.253-.0635-.4434-.1923-.5694-.1279-.1261-.3202-.1895-.5768-.1895h-53.624c-.2566,0-.4489.0635-.5777.1895-.1279.1261-.1923.3164-.1923.5694v52.8571c0,.253.0644.4425.1923.5694.1288.1261.321.1895.5777.1895ZM394.9902,136.0089v-16.1858l19.2426-2.9089v.7589h10.7758v18.3357h-30.0184Z"/>
    <path class="cls-3" d="M452.4605,136.0089c-3.4217,0-6.5224-.8216-9.3003-2.4655-2.7805-1.644-5.0034-3.835-6.6711-6.5758-1.6678-2.7382-2.5012-5.7954-2.5012-9.1683v-54.628c0-3.3702.8335-6.4275,2.5012-9.1674,1.6678-2.7391,3.8906-4.9319,6.6711-6.5758,2.7779-1.644,5.8786-2.4655,9.3003-2.4655h55.4197c3.3356,0,6.3927.8216,9.1724,2.4655,2.7788,1.644,5.0234,3.8368,6.7355,6.5758,1.7095,2.7399,2.5656,5.7972,2.5656,9.1674v54.628c0,3.3728-.8561,6.4301-2.5656,9.1683-1.7122,2.7408-3.9567,4.9319-6.7355,6.5758-2.7796,1.644-5.8368,2.4655-9.1724,2.4655h-55.4197ZM453.2304,117.6732h53.624c.2566,0,.4489-.0635.5768-.1895.1288-.1269.1923-.3164.1923-.5694v-52.8571c0-.253-.0635-.4434-.1923-.5694-.1279-.1261-.3202-.1895-.5768-.1895h-53.624c-.2566,0-.4489.0635-.5777.1895-.1279.1261-.1923.3164-.1923.5694v52.8571c0,.253.0644.4425.1923.5694.1288.1261.321.1895.5777.1895Z"/>
  </g>
  <g class="cls-2">
    <path class="cls-1" d="M546.2533,51.3707c-.8975,1.8921-1.4208,3.6978-1.4208,5.0743,0,1.8058.8225,2.9244,2.9156,2.9244,4.1133,0,10.7812-6.0028,16.0151-10.733,0,0,3.4278-4.4275,3.5018-4.4275.3742,0,0,5.7853,0,6.0431,0,.0863,0,.1726-.075.2578-5.6832,5.5047-16.0019,10.5802-21.3859,10.5802-2.9156,0-4.1123-1.4628-4.1123-3.6127,0-6.3656,10.9252-18.9977,16.0064-21.0454,1.9921-.8028,4.1769.3422,3.1817,3.3274-1.2317,3.6944-10.066,9.3752-14.6265,11.6114ZM547.2999,49.306c5.2339-2.1499,9.3472-6.193,9.3472-8.3429,0-.1726-.1501-.3441-.3742-.3441-2.5424,0-6.5056,4.2146-8.973,8.687Z"/>
    <path class="cls-1" d="M587.4778,45.6216c-3.0657,5.0743-1.6843,2.8252-2.5068,4.2005-.5233.7746-3.3302,5.7631-3.3302,6.0209,0,.1715.075.2578.1501.2578.2992-.1715,1.3457-1.0324,15.9269-12.9879.5438-.3039,1.9441-1.1175,2.6925-1.1175.5233,0,.5983,1.2902.5983,1.2902,0,.4293-.9725,1.548-1.2717,1.9784-4.2624,5.4184-6.2815,9.5467-6.2815,11.8692,0,1.4616.7484,2.1499,2.2433,2.1499,2.9166,0,8.5248-2.9244,16.6013-9.633.074-.0863.2241-.0863.2982-.0863.3742,0,.6734.4304.6734.6882,0,.0863,0,.1726-.075.2578-6.3555,6.1067-13.9497,11.1973-18.5113,11.1973-2.1682,0-3.8458-.2674-3.8458-2.5036,0-2.0647.9711-6.6289,3.8127-11.1877.2241-.2578.5233-.6882.5233-.8597,0-.1726-.074-.1726-.2241-.1726-.1491,0-.2992,0-.5233.1726-.6734.6019-13.9828,11.5251-16.3011,13.332-.2241.1715-.4493.2578-.5983.2578-.5983,0-1.0466-.7746-1.0466-1.4628,0-.3441.074-.6019.2992-.8597,10.0946-16.1701,33.5663-57.0126,40.1759-57.9028,2.2353-.301,2.3101,2.7728,2.1416,4.3459-.7311,6.8296-23.4703,32.3259-31.6209,40.7551ZM591.0631,39.7593c6.6264-7.1887,23.7907-25.977,23.5517-32.3897-.0091-.2442-.1844-.4754-.3967-.4667-2.8151.1154-14.6566,18.7935-23.155,32.8564Z"/>
    <path class="cls-1" d="M649.4577,49.5638c.3742,0,.6734.4304.6734.6882,0,.0863,0,.1726-.075.2578-7.4782,6.6234-14.7312,10.3213-19.2177,10.3213-2.7665,0-4.4115-1.4616-4.4115-4.3861,0-3.1822,1.9441-8.0851,6.5797-15.0526l6.6557-10.3213h-4.7106c-3.8141,0-8.4497.0863-14.7312.1726-.3742,0-1.1216-.4304-1.1216-1.1187,0-.8597,1.869-1.1175,2.6175-1.1175l19.4408-.2578c1.5709-2.3225,11.1422-16.3428,11.6655-17.2025.4482-.5168.5983-1.205,1.2717-1.205.5233,0,1.2707.6882,1.2707,1.2902,0,3.2686-6.1314,10.9243-11.2163,17.1173,14.5811-.259,24.8999-.259,40.0794-.4304.4493,0,.7484.1715.7484.6019,0,1.6343-.2241,2.6666-1.8701,2.6666-25.7974-.2578-32.3781-.4304-40.9769-.5168-2.0942,2.4952-3.8131,4.645-4.5616,5.7637-5.9073,8.7721-8.4497,14.88-8.4497,18.4063,0,2.4077,1.1967,3.6127,3.3649,3.6127,3.4399,0,9.3472-3.0971,16.6753-9.2037.075-.0863.2241-.0863.2992-.0863Z"/>
  </g>
</svg>